<svg id="Layer_1" data-name="Layer 1" xmlns="http://www.w3.org/2000/svg" viewBox="0 0 500 500"><defs><style>.cls-1{fill:#fff;fill-rule:evenodd;}</style></defs><g id="Twitter"><path class="cls-1" d="M250,0C388,0,500,112,500,250S388,500,250,500,0,388,0,250,112,0,250,0ZM206,383c110.6,0,171.1-91.7,171.1-171.1,0-2.6,0-5.2-.1-7.7A124,124,0,0,0,407.1,173a123.17,123.17,0,0,1-34.5,9.5A59.58,59.58,0,0,0,399,149.2a121.64,121.64,0,0,1-38.2,14.6,60.14,60.14,0,0,0-104,41.1,55.88,55.88,0,0,0,1.6,13.7,170.5,170.5,0,0,1-124-62.9,60.59,60.59,0,0,0-8.1,30.2,59.87,59.87,0,0,0,26.8,50,58.24,58.24,0,0,1-27.2-7.5v.7a60.18,60.18,0,0,0,48.3,59,59.05,59.05,0,0,1-15.8,2.1,60.13,60.13,0,0,1-11.3-1.1,60.11,60.11,0,0,0,56.1,41.8,120.83,120.83,0,0,1-74.7,25.7,96.35,96.35,0,0,1-14.3-.9A166,166,0,0,0,206,383Z"/></g></svg>