<svg id="Layer_1" data-name="Layer 1" xmlns="http://www.w3.org/2000/svg" viewBox="0 0 500 500"><defs><style>.cls-1{fill:#fff;}</style></defs><g id="LinkedIn"><path class="cls-1" d="M250,0C111.9,0,0,111.9,0,250S111.9,500,250,500,500,388.1,500,250,388.1,0,250,0ZM161.8,409.9H95.6V197.3h66.3l-.1,212.6Zm-33-242.2a38.8,38.8,0,1,1,38.8-38.8A38.84,38.84,0,0,1,128.8,167.7ZM410,410H343.5c0-26.4.3-80.8.3-119.3,0-17.5-7.8-41.1-35.8-41.1-30.8,0-38.3,28.7-38.3,41.1,0,37-.3,95.9-.3,119.3H203.3c0-39.5.4-175.2.4-213.5,34.1,0,50.5-.1,62.9-.1,0,12.5-.1,21-.1,30.1,10.4-21.1,38.9-34.3,51.1-34.9,5.6-.3,9.8-.5,14.2-.4h0c4.4,0,8.9.2,14.9.6,29.2,1.8,61.8,24.7,62.8,78.3C410.2,314.2,410,384.2,410,410Z"/></g></svg>