<svg id="Layer_1" data-name="Layer 1" xmlns="http://www.w3.org/2000/svg" viewBox="0 0 500 500"><defs><style>.cls-1{fill:#fff;}</style></defs><g id="Instagram"><path class="cls-1" d="M383,149.4a51.75,51.75,0,0,0-12.8-19.6A53.78,53.78,0,0,0,350.6,117c-6-2.4-15.1-5.1-31.7-5.9-18-.9-23.4-1-69-1s-50.9.1-68.9,1c-16.6.8-25.7,3.6-31.7,5.9a51.75,51.75,0,0,0-19.6,12.8,53.34,53.34,0,0,0-12.8,19.6c-2.4,6-5.2,15.1-5.9,31.7-.8,18-1,23.4-1,68.9s.2,51,1,69c.8,16.7,3.6,25.7,5.9,31.7a52.53,52.53,0,0,0,12.8,19.6,53.78,53.78,0,0,0,19.6,12.8c6,2.4,15,5.1,31.7,5.9,18,.9,23.4,1,69,1s50.9-.2,68.9-1c16.7-.8,25.7-3.5,31.7-5.9a52.53,52.53,0,0,0,19.6-12.8A53.78,53.78,0,0,0,383,350.7c2.4-6,5.1-15.1,5.9-31.7.9-18,1-23.4,1-69s-.2-51-1-69C388.1,164.4,385.4,155.4,383,149.4ZM250,337.6A87.6,87.6,0,1,1,337.6,250,87.57,87.57,0,0,1,250,337.6Zm91.1-158.2a20.5,20.5,0,1,1,20.5-20.5A20.53,20.53,0,0,1,341.1,179.4Z"/><circle class="cls-1" cx="250" cy="250" r="56.9"/><path class="cls-1" d="M250,0C112,0,0,111.9,0,250S112,500,250,500,500,388,500,250,388,0,250,0ZM419.7,320.3c-.9,18.2-3.8,30.6-8,41.5a87.77,87.77,0,0,1-49.8,49.9c-10.9,4.2-23.3,7.1-41.5,8s-24,1-70.4,1-52.1-.2-70.3-1-30.6-3.8-41.5-8a87.77,87.77,0,0,1-49.9-49.8c-4.2-10.9-7.1-23.3-8-41.5s-1-24-1-70.4.2-52.1,1-70.4,3.8-30.6,8-41.4A84.25,84.25,0,0,1,108,108a81.38,81.38,0,0,1,30.2-19.6c10.9-4.2,23.3-7.1,41.4-8s24-1,70.4-1,52.1.2,70.3,1,30.6,3.8,41.5,7.9A84.25,84.25,0,0,1,392,108a82.59,82.59,0,0,1,19.7,30.1c4.2,10.9,7.1,23.3,8,41.5s1,24,1,70.4S420.5,302.1,419.7,320.3Z"/></g></svg>