<svg id="Layer_1" data-name="Layer 1" xmlns="http://www.w3.org/2000/svg" viewBox="0 0 500 500"><defs><style>.cls-1{fill:#fff;}</style></defs><g id="YouTube"><polygon class="cls-1" points="210 190 210 310 310.1 250 210 190"/><path class="cls-1" d="M250,0C111.9,0,0,111.9,0,250S111.9,500,250,500,500,388.1,500,250,388.1,0,250,0ZM410,262.9a549.28,549.28,0,0,1-3.2,55.2s-3.1,23.6-12.7,33.9c-12.2,13.6-25.8,13.6-32.1,14.5-44.8,3.4-112,3.5-112,3.5s-83.2-.8-108.8-3.4c-7.1-1.4-23.1-1-35.3-14.6-9.6-10.3-12.7-33.9-12.7-33.9A549.28,549.28,0,0,1,90,262.9V237a549.28,549.28,0,0,1,3.2-55.2s3.1-23.5,12.7-33.9c12.2-13.6,25.8-13.7,32.1-14.5,44.8-3.5,111.9-3.5,111.9-3.5h.2s67.1,0,111.9,3.5c6.3.8,19.9.9,32.1,14.5,9.6,10.4,12.7,33.9,12.7,33.9a549.94,549.94,0,0,1,3.2,55.3v25.8Z"/></g></svg>