<svg id="Layer_1" data-name="Layer 1" xmlns="http://www.w3.org/2000/svg" viewBox="0 0 400 834.57"><defs><style>.cls-1{fill:#3d4652;}.cls-2{fill:#2d353d;}</style></defs><path class="cls-1" d="M347,0H53A53.07,53.07,0,0,0,0,53V781.56a53.07,53.07,0,0,0,53,53H347a53.07,53.07,0,0,0,53-53V53A53.07,53.07,0,0,0,347,0Zm38.85,783.4a37.4,37.4,0,0,1-37.3,37.29H51.46a37.4,37.4,0,0,1-37.3-37.29V51.17a37.4,37.4,0,0,1,37.3-37.29H90.57a5.2,5.2,0,0,1,5.18,5.17v3.64a20.78,20.78,0,0,0,20.72,20.72H283.62a20.79,20.79,0,0,0,20.72-20.72V17.45a5.19,5.19,0,0,1,4.92-3.57h39.28a37.4,37.4,0,0,1,37.3,37.29Z"/><path class="cls-2" d="M95.75,19.05v3.64a20.78,20.78,0,0,0,20.72,20.72H283.62a20.79,20.79,0,0,0,20.72-20.72V17.45a5.19,5.19,0,0,1,4.92-3.57H90.57A5.2,5.2,0,0,1,95.75,19.05Z"/><path class="cls-1" d="M238.86,28.14a6.46,6.46,0,1,1-6.46-6.46A6.46,6.46,0,0,1,238.86,28.14Z"/><path class="cls-1" d="M209.54,31.42H164.48a3.34,3.34,0,0,1-3.34-3.34v-.53a3.34,3.34,0,0,1,3.34-3.34h45.06a3.35,3.35,0,0,1,3.34,3.34v.53a3.35,3.35,0,0,1-3.34,3.34Z"/></svg>